<mxfile host="app.diagrams.net" modified="2022-04-20T16:06:12.006Z" agent="5.0 (X11)" etag="NHmdFazxY2sQz8DpEv09" version="17.4.5" type="github">
  <diagram id="XiBJQZjM-zaAcR11aCcq" name="Page-1">
    <mxGraphModel dx="944" dy="629" grid="1" gridSize="10" guides="1" tooltips="1" connect="1" arrows="1" fold="1" page="1" pageScale="1" pageWidth="1400" pageHeight="850" math="0" shadow="0">
      <root>
        <mxCell id="0" />
        <mxCell id="1" parent="0" />
        <mxCell id="1zGQ5D4SVl0kbezDFKv9-1" value="&lt;b&gt;&lt;font style=&quot;font-size: 16px&quot;&gt;CraftWorkers&lt;/font&gt;&lt;/b&gt;" style="rounded=0;whiteSpace=wrap;html=1;strokeWidth=2;" parent="1" vertex="1">
          <mxGeometry x="330" y="142.5" width="120" height="60" as="geometry" />
        </mxCell>
        <mxCell id="1zGQ5D4SVl0kbezDFKv9-2" value="&lt;font style=&quot;font-size: 16px&quot;&gt;&lt;b&gt;&lt;font style=&quot;font-size: 16px&quot;&gt;Profile&lt;/font&gt;&lt;/b&gt;&lt;/font&gt;" style="rounded=0;whiteSpace=wrap;html=1;fontSize=16;strokeWidth=2;" parent="1" vertex="1">
          <mxGeometry x="730" y="142.5" width="120" height="60" as="geometry" />
        </mxCell>
        <mxCell id="1zGQ5D4SVl0kbezDFKv9-3" value="&lt;b&gt;General People&lt;/b&gt;" style="rounded=0;whiteSpace=wrap;html=1;fontSize=16;strokeWidth=2;" parent="1" vertex="1">
          <mxGeometry x="1120" y="142.5" width="120" height="60" as="geometry" />
        </mxCell>
        <mxCell id="1zGQ5D4SVl0kbezDFKv9-4" value="&lt;b&gt;Articles&lt;/b&gt;" style="rounded=0;whiteSpace=wrap;html=1;fontSize=16;strokeWidth=2;" parent="1" vertex="1">
          <mxGeometry x="1010" y="582.5" width="120" height="60" as="geometry" />
        </mxCell>
        <mxCell id="1zGQ5D4SVl0kbezDFKv9-5" value="&lt;b&gt;Product&lt;/b&gt;" style="rounded=0;whiteSpace=wrap;html=1;fontSize=16;strokeWidth=2;" parent="1" vertex="1">
          <mxGeometry x="730" y="402.5" width="120" height="60" as="geometry" />
        </mxCell>
        <mxCell id="1zGQ5D4SVl0kbezDFKv9-6" value="&lt;b&gt;BalanceAccount&lt;/b&gt;" style="rounded=0;whiteSpace=wrap;html=1;fontSize=16;strokeWidth=2;" parent="1" vertex="1">
          <mxGeometry x="325" y="442.5" width="130" height="60" as="geometry" />
        </mxCell>
        <mxCell id="1zGQ5D4SVl0kbezDFKv9-7" value="&lt;b&gt;Order&lt;/b&gt;" style="rounded=0;whiteSpace=wrap;html=1;fontSize=16;strokeWidth=2;" parent="1" vertex="1">
          <mxGeometry x="990" y="422.5" width="120" height="60" as="geometry" />
        </mxCell>
        <mxCell id="9IpEyqhvjyuEZdurMeZ2-1" value="&lt;b&gt;Administrator&lt;/b&gt;" style="rounded=0;whiteSpace=wrap;html=1;fontSize=16;strokeWidth=2;" vertex="1" parent="1">
          <mxGeometry x="330" y="682.5" width="120" height="60" as="geometry" />
        </mxCell>
        <mxCell id="9IpEyqhvjyuEZdurMeZ2-2" value="&lt;b&gt;name&lt;/b&gt;" style="ellipse;whiteSpace=wrap;html=1;fontSize=16;strokeWidth=2;" vertex="1" parent="1">
          <mxGeometry x="715" y="55" width="90" height="40" as="geometry" />
        </mxCell>
        <mxCell id="9IpEyqhvjyuEZdurMeZ2-3" value="&lt;b&gt;mobile&lt;/b&gt;" style="ellipse;whiteSpace=wrap;html=1;fontSize=16;strokeWidth=2;" vertex="1" parent="1">
          <mxGeometry x="830" y="57.5" width="90" height="45" as="geometry" />
        </mxCell>
        <mxCell id="9IpEyqhvjyuEZdurMeZ2-4" value="&lt;font style=&quot;font-size: 18px&quot;&gt;&lt;u&gt;&lt;b&gt;profile_id&lt;/b&gt;&lt;/u&gt;&lt;/font&gt;" style="ellipse;whiteSpace=wrap;html=1;fontSize=16;strokeWidth=2;" vertex="1" parent="1">
          <mxGeometry x="570" y="55" width="120" height="50" as="geometry" />
        </mxCell>
        <mxCell id="9IpEyqhvjyuEZdurMeZ2-5" value="" style="endArrow=none;html=1;rounded=0;fontSize=18;exitX=0.25;exitY=0;exitDx=0;exitDy=0;entryX=1;entryY=1;entryDx=0;entryDy=0;strokeWidth=2;" edge="1" parent="1" source="1zGQ5D4SVl0kbezDFKv9-2" target="9IpEyqhvjyuEZdurMeZ2-4">
          <mxGeometry width="50" height="50" relative="1" as="geometry">
            <mxPoint x="700" y="392.5" as="sourcePoint" />
            <mxPoint x="750" y="342.5" as="targetPoint" />
          </mxGeometry>
        </mxCell>
        <mxCell id="9IpEyqhvjyuEZdurMeZ2-6" value="" style="endArrow=none;html=1;rounded=0;fontSize=18;exitX=0.5;exitY=0;exitDx=0;exitDy=0;strokeWidth=2;" edge="1" parent="1" source="1zGQ5D4SVl0kbezDFKv9-2" target="9IpEyqhvjyuEZdurMeZ2-2">
          <mxGeometry width="50" height="50" relative="1" as="geometry">
            <mxPoint x="700" y="392.5" as="sourcePoint" />
            <mxPoint x="750" y="342.5" as="targetPoint" />
          </mxGeometry>
        </mxCell>
        <mxCell id="9IpEyqhvjyuEZdurMeZ2-7" value="" style="endArrow=none;html=1;rounded=0;fontSize=18;entryX=0.5;entryY=1;entryDx=0;entryDy=0;exitX=0.75;exitY=0;exitDx=0;exitDy=0;strokeWidth=2;" edge="1" parent="1" source="1zGQ5D4SVl0kbezDFKv9-2" target="9IpEyqhvjyuEZdurMeZ2-3">
          <mxGeometry width="50" height="50" relative="1" as="geometry">
            <mxPoint x="700" y="392.5" as="sourcePoint" />
            <mxPoint x="750" y="342.5" as="targetPoint" />
          </mxGeometry>
        </mxCell>
        <mxCell id="9IpEyqhvjyuEZdurMeZ2-8" value="&lt;font style=&quot;font-size: 20px&quot;&gt;&lt;u&gt;&lt;b&gt;craftworkers_id&lt;/b&gt;&lt;/u&gt;&lt;/font&gt;" style="ellipse;whiteSpace=wrap;html=1;fontSize=18;strokeWidth=2;" vertex="1" parent="1">
          <mxGeometry x="230" y="50" width="160" height="70" as="geometry" />
        </mxCell>
        <mxCell id="9IpEyqhvjyuEZdurMeZ2-9" value="&lt;b&gt;mobile+OTP&lt;/b&gt;" style="ellipse;whiteSpace=wrap;html=1;fontSize=16;strokeWidth=2;" vertex="1" parent="1">
          <mxGeometry x="400" y="52.5" width="100" height="50" as="geometry" />
        </mxCell>
        <mxCell id="9IpEyqhvjyuEZdurMeZ2-11" value="" style="endArrow=none;html=1;rounded=0;fontSize=19;exitX=0.4;exitY=1;exitDx=0;exitDy=0;exitPerimeter=0;entryX=0;entryY=0;entryDx=0;entryDy=0;strokeWidth=2;" edge="1" parent="1" source="9IpEyqhvjyuEZdurMeZ2-8" target="1zGQ5D4SVl0kbezDFKv9-1">
          <mxGeometry width="50" height="50" relative="1" as="geometry">
            <mxPoint x="460" y="222.5" as="sourcePoint" />
            <mxPoint x="510" y="172.5" as="targetPoint" />
          </mxGeometry>
        </mxCell>
        <mxCell id="9IpEyqhvjyuEZdurMeZ2-12" value="" style="endArrow=none;html=1;rounded=0;fontSize=19;entryX=0.5;entryY=1;entryDx=0;entryDy=0;exitX=0.5;exitY=0;exitDx=0;exitDy=0;strokeWidth=2;" edge="1" parent="1" source="1zGQ5D4SVl0kbezDFKv9-1" target="9IpEyqhvjyuEZdurMeZ2-9">
          <mxGeometry width="50" height="50" relative="1" as="geometry">
            <mxPoint x="460" y="222.5" as="sourcePoint" />
            <mxPoint x="510" y="172.5" as="targetPoint" />
          </mxGeometry>
        </mxCell>
        <mxCell id="9IpEyqhvjyuEZdurMeZ2-13" value="&lt;u&gt;&lt;b&gt;generalMember_id&lt;/b&gt;&lt;/u&gt;" style="ellipse;whiteSpace=wrap;html=1;fontSize=20;strokeWidth=2;" vertex="1" parent="1">
          <mxGeometry x="1100" y="55" width="190" height="50" as="geometry" />
        </mxCell>
        <mxCell id="9IpEyqhvjyuEZdurMeZ2-14" value="" style="endArrow=none;html=1;rounded=0;fontSize=20;entryX=0.75;entryY=0;entryDx=0;entryDy=0;exitX=0.5;exitY=1;exitDx=0;exitDy=0;strokeWidth=2;" edge="1" parent="1" source="9IpEyqhvjyuEZdurMeZ2-13" target="1zGQ5D4SVl0kbezDFKv9-3">
          <mxGeometry width="50" height="50" relative="1" as="geometry">
            <mxPoint x="360" y="242.5" as="sourcePoint" />
            <mxPoint x="410" y="192.5" as="targetPoint" />
          </mxGeometry>
        </mxCell>
        <mxCell id="9IpEyqhvjyuEZdurMeZ2-15" value="&lt;b&gt;mobile+OTP&lt;/b&gt;" style="ellipse;whiteSpace=wrap;html=1;fontSize=16;strokeWidth=2;" vertex="1" parent="1">
          <mxGeometry x="960" y="60" width="100" height="50" as="geometry" />
        </mxCell>
        <mxCell id="9IpEyqhvjyuEZdurMeZ2-16" value="" style="endArrow=none;html=1;rounded=0;fontSize=20;exitX=0.5;exitY=1;exitDx=0;exitDy=0;entryX=0.5;entryY=0;entryDx=0;entryDy=0;strokeWidth=2;" edge="1" parent="1" source="9IpEyqhvjyuEZdurMeZ2-15" target="1zGQ5D4SVl0kbezDFKv9-3">
          <mxGeometry width="50" height="50" relative="1" as="geometry">
            <mxPoint x="360" y="242.5" as="sourcePoint" />
            <mxPoint x="410" y="192.5" as="targetPoint" />
          </mxGeometry>
        </mxCell>
        <mxCell id="9IpEyqhvjyuEZdurMeZ2-25" value="&lt;u&gt;&lt;b&gt;account_id&lt;/b&gt;&lt;/u&gt;" style="ellipse;whiteSpace=wrap;html=1;fontSize=20;strokeWidth=2;" vertex="1" parent="1">
          <mxGeometry x="260" y="552.5" width="120" height="50" as="geometry" />
        </mxCell>
        <mxCell id="9IpEyqhvjyuEZdurMeZ2-26" value="&lt;b&gt;balance&lt;/b&gt;" style="ellipse;whiteSpace=wrap;html=1;fontSize=20;strokeWidth=2;" vertex="1" parent="1">
          <mxGeometry x="390" y="552.5" width="130" height="50" as="geometry" />
        </mxCell>
        <mxCell id="9IpEyqhvjyuEZdurMeZ2-27" value="" style="endArrow=none;html=1;rounded=0;fontSize=20;entryX=0.25;entryY=1;entryDx=0;entryDy=0;exitX=0.5;exitY=0;exitDx=0;exitDy=0;strokeWidth=2;" edge="1" parent="1" source="9IpEyqhvjyuEZdurMeZ2-25" target="1zGQ5D4SVl0kbezDFKv9-6">
          <mxGeometry width="50" height="50" relative="1" as="geometry">
            <mxPoint x="560" y="442.5" as="sourcePoint" />
            <mxPoint x="610" y="392.5" as="targetPoint" />
          </mxGeometry>
        </mxCell>
        <mxCell id="9IpEyqhvjyuEZdurMeZ2-28" value="" style="endArrow=none;html=1;rounded=0;fontSize=20;entryX=0.75;entryY=1;entryDx=0;entryDy=0;exitX=0.5;exitY=0;exitDx=0;exitDy=0;strokeWidth=2;" edge="1" parent="1" source="9IpEyqhvjyuEZdurMeZ2-26" target="1zGQ5D4SVl0kbezDFKv9-6">
          <mxGeometry width="50" height="50" relative="1" as="geometry">
            <mxPoint x="560" y="442.5" as="sourcePoint" />
            <mxPoint x="610" y="392.5" as="targetPoint" />
          </mxGeometry>
        </mxCell>
        <mxCell id="9IpEyqhvjyuEZdurMeZ2-30" value="" style="edgeStyle=entityRelationEdgeStyle;fontSize=12;html=1;endArrow=ERmandOne;startArrow=none;rounded=0;exitX=1;exitY=0.5;exitDx=0;exitDy=0;entryX=0;entryY=0.5;entryDx=0;entryDy=0;strokeWidth=2;" edge="1" parent="1" source="9IpEyqhvjyuEZdurMeZ2-17" target="1zGQ5D4SVl0kbezDFKv9-2">
          <mxGeometry width="100" height="100" relative="1" as="geometry">
            <mxPoint x="530" y="462.5" as="sourcePoint" />
            <mxPoint x="630" y="362.5" as="targetPoint" />
          </mxGeometry>
        </mxCell>
        <mxCell id="9IpEyqhvjyuEZdurMeZ2-17" value="&lt;b&gt;Has&lt;/b&gt;" style="rhombus;whiteSpace=wrap;html=1;fontSize=20;strokeWidth=2;" vertex="1" parent="1">
          <mxGeometry x="530" y="152.5" width="70" height="40" as="geometry" />
        </mxCell>
        <mxCell id="9IpEyqhvjyuEZdurMeZ2-32" value="" style="edgeStyle=entityRelationEdgeStyle;fontSize=12;html=1;endArrow=none;startArrow=ERmandOne;rounded=0;exitX=1;exitY=0.5;exitDx=0;exitDy=0;entryX=0;entryY=0.5;entryDx=0;entryDy=0;strokeWidth=2;" edge="1" parent="1" source="1zGQ5D4SVl0kbezDFKv9-1" target="9IpEyqhvjyuEZdurMeZ2-17">
          <mxGeometry width="100" height="100" relative="1" as="geometry">
            <mxPoint x="450" y="172.5" as="sourcePoint" />
            <mxPoint x="670" y="172.5" as="targetPoint" />
          </mxGeometry>
        </mxCell>
        <mxCell id="9IpEyqhvjyuEZdurMeZ2-33" value="" style="edgeStyle=entityRelationEdgeStyle;fontSize=12;html=1;endArrow=ERmandOne;startArrow=none;rounded=0;exitX=1;exitY=0.5;exitDx=0;exitDy=0;entryX=0;entryY=0.5;entryDx=0;entryDy=0;strokeWidth=2;" edge="1" parent="1" source="9IpEyqhvjyuEZdurMeZ2-18" target="1zGQ5D4SVl0kbezDFKv9-3">
          <mxGeometry width="100" height="100" relative="1" as="geometry">
            <mxPoint x="530" y="462.5" as="sourcePoint" />
            <mxPoint x="630" y="362.5" as="targetPoint" />
          </mxGeometry>
        </mxCell>
        <mxCell id="9IpEyqhvjyuEZdurMeZ2-18" value="&lt;b&gt;Has&lt;/b&gt;" style="rhombus;whiteSpace=wrap;html=1;fontSize=20;strokeWidth=2;" vertex="1" parent="1">
          <mxGeometry x="920" y="152.5" width="70" height="40" as="geometry" />
        </mxCell>
        <mxCell id="9IpEyqhvjyuEZdurMeZ2-34" value="" style="edgeStyle=entityRelationEdgeStyle;fontSize=12;html=1;endArrow=none;startArrow=ERmandOne;rounded=0;exitX=1;exitY=0.5;exitDx=0;exitDy=0;entryX=0;entryY=0.5;entryDx=0;entryDy=0;strokeWidth=2;" edge="1" parent="1" source="1zGQ5D4SVl0kbezDFKv9-2" target="9IpEyqhvjyuEZdurMeZ2-18">
          <mxGeometry width="100" height="100" relative="1" as="geometry">
            <mxPoint x="790" y="172.5" as="sourcePoint" />
            <mxPoint x="1040" y="172.5" as="targetPoint" />
          </mxGeometry>
        </mxCell>
        <mxCell id="9IpEyqhvjyuEZdurMeZ2-35" value="" style="edgeStyle=entityRelationEdgeStyle;fontSize=12;html=1;endArrow=ERmandOne;startArrow=none;rounded=0;entryX=0.5;entryY=1;entryDx=0;entryDy=0;exitX=0.5;exitY=0;exitDx=0;exitDy=0;strokeWidth=2;" edge="1" parent="1" source="9IpEyqhvjyuEZdurMeZ2-29" target="1zGQ5D4SVl0kbezDFKv9-1">
          <mxGeometry width="100" height="100" relative="1" as="geometry">
            <mxPoint x="560" y="452.5" as="sourcePoint" />
            <mxPoint x="590" y="272.5" as="targetPoint" />
          </mxGeometry>
        </mxCell>
        <mxCell id="9IpEyqhvjyuEZdurMeZ2-29" value="&lt;b&gt;withdraw&lt;/b&gt;" style="rhombus;whiteSpace=wrap;html=1;fontSize=20;strokeWidth=2;" vertex="1" parent="1">
          <mxGeometry x="310" y="282.5" width="150" height="70" as="geometry" />
        </mxCell>
        <mxCell id="9IpEyqhvjyuEZdurMeZ2-37" value="" style="edgeStyle=entityRelationEdgeStyle;fontSize=12;html=1;endArrow=none;startArrow=ERmandOne;rounded=0;entryX=0.5;entryY=1;entryDx=0;entryDy=0;exitX=0.5;exitY=0;exitDx=0;exitDy=0;strokeWidth=2;" edge="1" parent="1" source="1zGQ5D4SVl0kbezDFKv9-6" target="9IpEyqhvjyuEZdurMeZ2-29">
          <mxGeometry width="100" height="100" relative="1" as="geometry">
            <mxPoint x="390" y="342.4999999999999" as="sourcePoint" />
            <mxPoint x="390" y="202.5" as="targetPoint" />
          </mxGeometry>
        </mxCell>
        <mxCell id="9IpEyqhvjyuEZdurMeZ2-38" value="&lt;b&gt;product_id&lt;/b&gt;" style="ellipse;whiteSpace=wrap;html=1;fontSize=20;strokeWidth=2;" vertex="1" parent="1">
          <mxGeometry x="730" y="502.5" width="120" height="50" as="geometry" />
        </mxCell>
        <mxCell id="9IpEyqhvjyuEZdurMeZ2-39" value="&lt;b&gt;product_type&lt;/b&gt;" style="ellipse;whiteSpace=wrap;html=1;fontSize=20;strokeWidth=2;" vertex="1" parent="1">
          <mxGeometry x="720" y="302.5" width="140" height="50" as="geometry" />
        </mxCell>
        <mxCell id="9IpEyqhvjyuEZdurMeZ2-41" value="" style="endArrow=none;html=1;rounded=0;fontSize=20;strokeWidth=2;entryX=0.5;entryY=1;entryDx=0;entryDy=0;exitX=0.5;exitY=0;exitDx=0;exitDy=0;" edge="1" parent="1" source="1zGQ5D4SVl0kbezDFKv9-5" target="9IpEyqhvjyuEZdurMeZ2-39">
          <mxGeometry width="50" height="50" relative="1" as="geometry">
            <mxPoint x="610" y="342.5" as="sourcePoint" />
            <mxPoint x="660" y="292.5" as="targetPoint" />
          </mxGeometry>
        </mxCell>
        <mxCell id="9IpEyqhvjyuEZdurMeZ2-43" value="" style="endArrow=none;html=1;rounded=0;fontSize=20;strokeWidth=2;exitX=0.5;exitY=0;exitDx=0;exitDy=0;entryX=0.5;entryY=1;entryDx=0;entryDy=0;" edge="1" parent="1" source="9IpEyqhvjyuEZdurMeZ2-38" target="1zGQ5D4SVl0kbezDFKv9-5">
          <mxGeometry width="50" height="50" relative="1" as="geometry">
            <mxPoint x="770" y="482.5" as="sourcePoint" />
            <mxPoint x="820" y="432.5" as="targetPoint" />
          </mxGeometry>
        </mxCell>
        <mxCell id="9IpEyqhvjyuEZdurMeZ2-52" value="" style="edgeStyle=entityRelationEdgeStyle;fontSize=12;html=1;endArrow=ERoneToMany;startArrow=none;rounded=0;strokeWidth=2;entryX=1;entryY=0.75;entryDx=0;entryDy=0;exitX=0;exitY=0.5;exitDx=0;exitDy=0;" edge="1" parent="1" source="9IpEyqhvjyuEZdurMeZ2-49" target="1zGQ5D4SVl0kbezDFKv9-1">
          <mxGeometry width="100" height="100" relative="1" as="geometry">
            <mxPoint x="780" y="462.5" as="sourcePoint" />
            <mxPoint x="880" y="362.5" as="targetPoint" />
          </mxGeometry>
        </mxCell>
        <mxCell id="9IpEyqhvjyuEZdurMeZ2-49" value="&lt;b&gt;Post&lt;/b&gt;" style="rhombus;whiteSpace=wrap;html=1;fontSize=20;strokeWidth=2;" vertex="1" parent="1">
          <mxGeometry x="540" y="297.5" width="80" height="60" as="geometry" />
        </mxCell>
        <mxCell id="9IpEyqhvjyuEZdurMeZ2-53" value="" style="edgeStyle=entityRelationEdgeStyle;fontSize=12;html=1;endArrow=none;startArrow=ERoneToMany;rounded=0;strokeWidth=2;entryX=1;entryY=0.5;entryDx=0;entryDy=0;exitX=0;exitY=0.5;exitDx=0;exitDy=0;" edge="1" parent="1" source="1zGQ5D4SVl0kbezDFKv9-5" target="9IpEyqhvjyuEZdurMeZ2-49">
          <mxGeometry width="100" height="100" relative="1" as="geometry">
            <mxPoint x="730" y="432.5" as="sourcePoint" />
            <mxPoint x="450" y="187.5" as="targetPoint" />
          </mxGeometry>
        </mxCell>
        <mxCell id="9IpEyqhvjyuEZdurMeZ2-54" value="&lt;b&gt;price&lt;/b&gt;" style="ellipse;whiteSpace=wrap;html=1;fontSize=20;strokeWidth=2;" vertex="1" parent="1">
          <mxGeometry x="610" y="502.5" width="110" height="50" as="geometry" />
        </mxCell>
        <mxCell id="9IpEyqhvjyuEZdurMeZ2-55" value="" style="endArrow=none;html=1;rounded=0;fontSize=20;strokeWidth=2;entryX=0.383;entryY=1;entryDx=0;entryDy=0;entryPerimeter=0;exitX=0.5;exitY=0;exitDx=0;exitDy=0;" edge="1" parent="1" source="9IpEyqhvjyuEZdurMeZ2-54" target="1zGQ5D4SVl0kbezDFKv9-5">
          <mxGeometry width="50" height="50" relative="1" as="geometry">
            <mxPoint x="810" y="442.5" as="sourcePoint" />
            <mxPoint x="860" y="392.5" as="targetPoint" />
          </mxGeometry>
        </mxCell>
        <mxCell id="9IpEyqhvjyuEZdurMeZ2-60" value="" style="edgeStyle=entityRelationEdgeStyle;fontSize=12;html=1;endArrow=ERmany;startArrow=none;rounded=0;strokeWidth=2;exitX=1;exitY=0.5;exitDx=0;exitDy=0;entryX=0;entryY=0.75;entryDx=0;entryDy=0;" edge="1" parent="1" source="9IpEyqhvjyuEZdurMeZ2-57" target="1zGQ5D4SVl0kbezDFKv9-3">
          <mxGeometry width="100" height="100" relative="1" as="geometry">
            <mxPoint x="670" y="422.5" as="sourcePoint" />
            <mxPoint x="770" y="322.5" as="targetPoint" />
          </mxGeometry>
        </mxCell>
        <mxCell id="9IpEyqhvjyuEZdurMeZ2-57" value="&lt;b&gt;Order&lt;/b&gt;" style="rhombus;whiteSpace=wrap;html=1;fontSize=20;strokeWidth=2;" vertex="1" parent="1">
          <mxGeometry x="940" y="282.5" width="80" height="60" as="geometry" />
        </mxCell>
        <mxCell id="9IpEyqhvjyuEZdurMeZ2-62" value="" style="edgeStyle=entityRelationEdgeStyle;fontSize=12;html=1;endArrow=none;startArrow=ERmany;rounded=0;strokeWidth=2;exitX=1;exitY=0.5;exitDx=0;exitDy=0;" edge="1" parent="1" source="1zGQ5D4SVl0kbezDFKv9-5">
          <mxGeometry width="100" height="100" relative="1" as="geometry">
            <mxPoint x="850" y="432.5" as="sourcePoint" />
            <mxPoint x="940" y="312.5" as="targetPoint" />
          </mxGeometry>
        </mxCell>
        <mxCell id="9IpEyqhvjyuEZdurMeZ2-63" value="" style="edgeStyle=entityRelationEdgeStyle;fontSize=12;html=1;endArrow=ERoneToMany;startArrow=none;rounded=0;strokeWidth=2;exitX=0.5;exitY=0;exitDx=0;exitDy=0;entryX=0;entryY=0.5;entryDx=0;entryDy=0;" edge="1" parent="1" source="9IpEyqhvjyuEZdurMeZ2-64" target="1zGQ5D4SVl0kbezDFKv9-1">
          <mxGeometry width="100" height="100" relative="1" as="geometry">
            <mxPoint x="590" y="582.5" as="sourcePoint" />
            <mxPoint x="280" y="282.5" as="targetPoint" />
          </mxGeometry>
        </mxCell>
        <mxCell id="9IpEyqhvjyuEZdurMeZ2-64" value="Verification" style="rhombus;whiteSpace=wrap;html=1;fontSize=20;strokeWidth=2;" vertex="1" parent="1">
          <mxGeometry x="90" y="402.5" width="130" height="80" as="geometry" />
        </mxCell>
        <mxCell id="9IpEyqhvjyuEZdurMeZ2-65" value="" style="edgeStyle=entityRelationEdgeStyle;fontSize=12;html=1;endArrow=none;startArrow=ERmandOne;rounded=0;strokeWidth=2;exitX=0;exitY=0.5;exitDx=0;exitDy=0;entryX=0.5;entryY=1;entryDx=0;entryDy=0;" edge="1" parent="1" source="9IpEyqhvjyuEZdurMeZ2-1" target="9IpEyqhvjyuEZdurMeZ2-64">
          <mxGeometry width="100" height="100" relative="1" as="geometry">
            <mxPoint x="330" y="712.5" as="sourcePoint" />
            <mxPoint x="220" y="502.5" as="targetPoint" />
          </mxGeometry>
        </mxCell>
      </root>
    </mxGraphModel>
  </diagram>
</mxfile>
